<?xml version="1.0"?><svg id="Layer_1" xmlns="http://www.w3.org/2000/svg" viewBox="0 0 149.8 36"><path d="M23.6,1.4l-9.5,9.5h9.5V1.4v2.6V1.4ZM14.1,10.9L4.6,1.4v9.5h9.5ZM14,0v36M23.6,20.4l-9.5-9.5v13.6l9.5,9.5v-13.6ZM4.6,20.4l9.5-9.5v13.6l-9.5,9.5s0-13.6,0-13.6ZM.5,10.9v13.6h4.1v-4.1l9.5-9.5H.5ZM14.1,10.9l9.5,9.5v4.1h4.1v-13.6h-13.6Z" style="fill:none; stroke:#20808d; stroke-miterlimit:10;"></path><path d="M55.5,13c.6-1.1,1.4-2,2.5-2.6s2.3-.9,3.8-.9,2.6.3,3.6.9c1,.6,1.7,1.4,2.2,2.3.5,1,.7,2,.7,3.2v1.6h-11.2c0,1.4.6,2.5,1.4,3.3.9.8,2,1.2,3.4,1.2s2.1-.2,2.7-.7c.6-.5,1.1-1.1,1.4-2h2.6c-.3,1.3-1,2.4-2.1,3.4-1,1-2.6,1.4-4.5,1.4s-2.8-.3-3.9-.9c-1.1-.6-2-1.5-2.6-2.6s-.9-2.4-.9-3.9.3-2.8.9-3.9h0v.2ZM65.6,15.6c0-1.2-.3-2.2-.9-2.9s-1.6-1-3-1-2.3.3-3.1,1-1.3,1.6-1.5,2.9h8.5ZM71.7,10v2.2c0,.1,0,.2.2.2h.2c.1,0,0-.1.1-.2.5-1.5,1.6-2.2,3.5-2.2h1.2v2.4h-1.5c-1.2,0-2.1.3-2.7.9s-.9,1.5-.9,2.8v7.9h-2.4v-14h2.4-.1ZM91,21c-.6,1.1-1.5,2-2.5,2.5s-2.1.8-3.3.8c-2.3,0-3.9-.9-4.8-2.7,0-.1-.2-.2-.3-.2s-.2,0-.2.2v7.5h-2.4V10h2.4v2.4c0,.1,0,.2.2.2s.2,0,.3-.2c.9-1.8,2.5-2.7,4.8-2.7s2.3.3,3.3.8c1,.6,1.8,1.4,2.5,2.5.6,1.1,1,2.5,1,4s-.3,2.9-1,4h0ZM88.2,13.1c-.9-.9-2.1-1.4-3.5-1.4s-2.6.5-3.5,1.4-1.2,2.2-1.2,3.9.3,2.9,1.2,3.9c.9.9,2.1,1.4,3.5,1.4s2.6-.5,3.5-1.4,1.3-2.2,1.3-3.9-.4-2.9-1.3-3.9ZM95.5,4.6v19.3h-2.4V4.6h2.4ZM97.5,13c.6-1.1,1.4-2,2.5-2.6s2.3-.9,3.8-.9,2.6.3,3.6.9c1,.6,1.7,1.4,2.2,2.3.5,1,.7,2,.7,3.2v1.6h-11.2c0,1.4.6,2.5,1.4,3.3.9.8,2,1.2,3.4,1.2s2.1-.2,2.7-.7,1.1-1.1,1.4-2h2.6c-.3,1.3-1,2.4-2.1,3.4-1,1-2.6,1.4-4.5,1.4s-2.8-.3-3.9-.9-2-1.5-2.6-2.6-.9-2.4-.9-3.9.3-2.8.9-3.9h0v.2ZM107.6,15.6c0-1.2-.3-2.2-.9-2.9s-1.6-1-3-1-2.3.3-3.1,1c-.8.7-1.3,1.6-1.5,2.9h8.5ZM109.2,23.4l5.5-6.8-4.5-6v-.5h2.7l3.8,5.2,4.1-5.2h2.7v.6l-5.2,6.4,4.8,6.4v.5h-2.6l-4.1-5.6-4.4,5.6h-2.7v-.5h0l-.1-.1ZM127,5.4v3h-2.8v-3s2.8,0,2.8,0ZM126.9,23.9h-2.4v-14h2.4v14ZM127.6,10h2.6v-3.8h2.4v3.8h2.8l.7,2h-3.5v9.5c0,.1,0,.2.1.3,0,0,.2.1.3.1h3.7v2.1h-1.9c-1.5,0-2.7-.4-3.4-1.1-.8-.8-1.1-1.9-1.1-3.4v-7.3h-2.6v-2h0l-.1-.2ZM136.2,10h2.5l4,11.7c0,.1.1.3.4.3s.4-.2.4-.3l4-11.7h2.3v.5l-5,15.1c-.4,1.3-1,2.2-1.8,2.7s-1.7.8-3.2.8h-2.6v-2.1h4.3c.3,0,.5-.1.6-.4l.8-2v-.5s0-.1-.1-.1h-1.8l-4.6-14h-.2ZM53,21c-.6,1.1-1.5,2-2.5,2.5s-2.1.8-3.3.8c-2.3,0-3.9-.9-4.8-2.7,0-.1-.2-.2-.3-.2s-.2,0-.2.2v7.5h-2.4V10h2.4v2.4c0,.1,0,.2.2.2s.2,0,.3-.2c.9-1.8,2.5-2.7,4.8-2.7s2.3.3,3.3.8,1.8,1.4,2.5,2.5c.6,1.1,1,2.5,1,4s-.3,2.9-1,4ZM50.2,13.1c-.9-.9-2.1-1.4-3.5-1.4s-2.6.5-3.5,1.4-1.2,2.2-1.2,3.9.3,2.9,1.2,3.9c.9.9,2.1,1.4,3.5,1.4s2.6-.5,3.5-1.4,1.3-2.2,1.3-3.9-.4-2.9-1.3-3.9Z" style="fill:#fff;"></path></svg>