<?xml version="1.0"?>
<svg id="Layer_1" xmlns="http://www.w3.org/2000/svg" xmlns:xlink="http://www.w3.org/1999/xlink" version="1.1" viewBox="0 0 2535 1024">
  
  <defs>
    
    <radialGradient id="radial-gradient" cx="945.5" cy="801.5" fx="945.5" fy="801.5" r="1" gradientTransform="translate(558821.2 178959.5) rotate(-130.9) scale(529.1 -380.7)" gradientUnits="userSpaceOnUse">
      <stop offset="0" stop-color="#00cacc"></stop>
      <stop offset="1" stop-color="#048fce"></stop>
    </radialGradient>
    <radialGradient id="radial-gradient1" cx="942.6" cy="800.6" fx="942.6" fy="800.6" r="1" gradientTransform="translate(-195011.1 915192.3) rotate(-23.2) scale(572.3 -953.7)" gradientUnits="userSpaceOnUse">
      <stop offset="0" stop-color="#00bbec"></stop>
      <stop offset="1" stop-color="#2756a9"></stop>
    </radialGradient>
    <linearGradient id="linear-gradient" x1="118.4" y1="1024" x2="118.4" y2="139.6" gradientTransform="translate(0 1024) scale(1 -1)" gradientUnits="userSpaceOnUse">
      <stop offset="0" stop-color="#00bbec"></stop>
      <stop offset="1" stop-color="#2756a9"></stop>
    </linearGradient>
  </defs>
  <path class="st0" d="M342.4,322.9c-18.9,2.2-33.3,17.5-34.6,36.9-.6,8.3-.4,8.9,18.5,57.5,43,110.5,53.4,137.1,55.1,140.9,4.2,9.1,10.2,17.6,17.7,25.3,5.7,5.9,9.5,9,15.9,13.3,11.2,7.5,16.8,9.6,60.4,22.5,42.5,12.6,65.7,20.9,85.7,30.9,25.9,12.9,44,27.5,55.4,44.8,8.2,12.5,15.5,34.8,18.6,57.3,1.2,8.8,1.2,28.2,0,36.2-2.7,17.2-8,31.7-16.1,43.8-4.3,6.4-2.8,5.4,3.5-2.5,17.8-22.2,36-60.1,45.3-94.4,11.2-41.6,12.7-86.2,4.4-128.5-16.3-82.3-68.2-153.3-141.4-193.3-4.6-2.5-22.1-11.7-45.9-24-3.6-1.9-8.5-4.4-10.9-5.7-2.4-1.3-7.3-3.8-10.9-5.7-3.6-1.9-14-7.3-23-12-9.1-4.7-19.2-10-22.6-11.8-10.2-5.3-17-8.9-22.1-11.5-23.5-12.3-33.5-17.3-36.3-18.2-3-.9-10.5-2.1-12.4-1.9-.4,0-2.2.2-4,.4Z"></path>
  <path class="st3" d="M393.7,735.5c-1.3.8-3.1,1.9-4.1,2.5-.9.6-3,1.9-4.6,2.9-5.9,3.6-21.5,13.2-34.9,21.5-8.8,5.4-10.1,6.3-21.4,13.2-4,2.5-8.3,5.1-9.5,5.8-1.2.7-6.3,3.9-11.4,7-5.1,3.1-13.9,8.6-19.7,12.1-5.7,3.5-16,9.9-22.8,14.1-6.8,4.2-15.8,9.7-19.9,12.3-4.1,2.5-8,5-8.5,5.4-.8.7-37.6,23.5-56,34.7-14,8.5-30.2,14.3-46.8,16.5-7.7,1-22.4,1-30.1,0-20.9-2.8-40.2-10.6-56.6-22.9-6.5-4.8-18.6-17-23.3-23.3-11-14.8-18.1-30.7-21.7-48.7-.8-4.1-1.6-7.6-1.8-7.8-.3-.3.3,5.9,1.4,14.1,1.2,8.5,3.6,20.8,6.3,31.3,20.7,81.3,79.5,147.5,159.2,179,22.9,9.1,46.1,14.8,71.3,17.6,9.5,1.1,36.2,1.5,46.1.7,45.3-3.4,84.7-16.8,125.2-42.3,3.6-2.3,10.4-6.5,15-9.5,4.7-2.9,10.6-6.7,13.1-8.3,2.5-1.6,5.6-3.6,6.8-4.3,1.2-.7,3.6-2.2,5.3-3.4,1.7-1.1,9.2-5.8,16.5-10.4l29.3-18.5,10.1-6.4.4-.2,1.1-.7.5-.3,7.4-4.7,25.6-16.2c32.7-20.5,42.4-27.7,57.6-42.6,6.3-6.2,15.9-16.8,16.3-18.1,0-.3,1.8-2.9,3.8-5.8,8-11.9,13.4-26.4,16-43.6,1.2-7.9,1.2-27.4,0-36.2-2.4-17-7.8-36.3-13.7-48.5-9.6-20.1-30-38.4-59.4-53.1-8.1-4.1-16.5-7.8-17.4-7.7-.4,0-27.8,16.7-60.7,37.1s-61.6,38.1-63.6,39.3c-2,1.2-5.4,3.3-7.6,4.7l-18.9,11.7Z"></path>
  <path class="st1" d="M.1,637.7v142.1c.1,0,2,8.2,2,8.2,5.7,25.8,15.7,44.4,33,61.7,8.1,8.1,14.4,13,23.2,18.2,18.7,11.1,38.8,16.5,60.8,16.5,23.1,0,43-5.8,63.6-18.3,3.5-2.1,17.1-10.5,30.2-18.6l23.9-14.7v-491.3c0-98.4-.2-156.8-.5-161.4-2-28.8-14-55.3-34.3-75.3-6.2-6.1-11.5-10.3-27.3-21.1-7.9-5.4-22.3-15.3-32-22.1-9.7-6.7-25.8-17.8-35.7-24.6-9.9-6.8-24-16.5-31.3-21.6-15.3-10.5-16.5-11.3-21.1-12.9C48.6.4,42.2-.4,36.2.2,18.5,2.1,4.4,14.9.7,32.2.1,34.9,0,70.8,0,265.5v230.1h0v142.1Z"></path>
  <path class="st2" d="M993,811.4V209.9h191c58.2,0,104.4,12.7,138.4,38.2,34,25.5,50.9,58.6,50.9,99.3s-9.8,63.7-28.9,89.1c-20.4,25.8-48.5,44.6-80.2,53.5v1.7c41.6,4.7,74.3,20,98.9,46.3,25,25.5,37.4,59.4,37.4,100.6s-20.4,93.4-60.7,124.8c-40.3,31.4-91.7,48-153.7,48h-193.2ZM1092.8,290.1v171.1h64.5c34.8,0,62-8.5,81.5-24.2,19.9-17,29.7-39.9,29.7-69.6,0-51.8-34.4-77.3-103.2-77.3h-72.6ZM1092.8,541.4v190.2h84.9c37.3,0,66.2-8.5,86.2-25.5,20.4-17.4,30.6-41.2,30.6-71.3,0-62.4-42.9-93.4-129.5-93.4h-72.2ZM1522.4,291.8c-15.7,0-29.7-5.5-40.8-15.7-11.5-10.2-17-23.3-17-39.5s5.5-29.3,17-39.9c11.5-10.6,25.1-15.7,41.2-15.7s30.1,5.1,41.6,15.7c11.5,10.6,17,24.2,17,39.9s-5.5,28-17,39.1c-11.5,10.6-25.5,16.1-42,16.1ZM1570.8,811.4h-97.2v-429.6h97.6l-.4,429.6ZM2052.6,811.4h-97.2v-242c0-80.7-28.4-120.6-84.9-120.6s-54.3,11.5-73.9,34c-19.7,23.3-29.9,53.1-28.9,83.6v244.9h-97.6v-429.6h97.6v71.3h1.7c13.3-25.2,33.4-46.2,58-60.6,24.6-14.4,52.8-21.6,81.2-20.9,46.7,0,82.4,15.3,107,45.8,24.6,30.1,36.9,73.9,36.9,131.6v262.4ZM2534.4,777c0,157.5-79,236.5-237.7,236.5-50.3,1.2-100.2-8.4-146.5-28v-89.2c46.7,27.2,91.7,40.3,133.7,40.3,101.9,0,153.2-50.1,153.2-150.7v-46.7h-1.7c-14.1,25.9-35.2,47.3-60.9,61.8-25.7,14.5-54.9,21.5-84.3,20.2-24,.8-47.9-4-69.8-13.8-21.9-9.9-41.3-24.6-56.7-43.1-33.8-44-50.8-98.7-48-154.1,0-73,17-130.8,51.8-174.1,34.8-43.3,81.5-64.5,141.8-64.5s98.5,23.3,126.1,69.6h1.7v-59.4h97.6l-.4,395.2ZM2438.1,614.9v-56c0-30.1-10.2-56-30.1-77.3-9.4-10.4-20.9-18.7-33.8-24.3-12.9-5.6-26.8-8.3-40.9-8-36.9,0-65.8,14-86.6,41.2-22.8,33.6-33.8,73.7-31.4,114.2,0,42.5,10.2,76,29.7,101.5,20.4,25.5,46.7,37.8,79.8,37.8s61.1-12.3,81.9-36.1c21.2-24.6,31.4-55.2,31.4-93.4v.4Z"></path>
</svg>