<?xml version="1.0"?><svg id="Layer_1" xmlns="http://www.w3.org/2000/svg" xmlns:xlink="http://www.w3.org/1999/xlink" viewBox="0 0 123.98 140.48"><defs><linearGradient id="linear-gradient" x1="0" y1="71.76" x2="123.98" y2="71.76" gradientTransform="translate(0 142) scale(1 -1)" gradientUnits="userSpaceOnUse"><stop offset="0" stop-color="#237c82"></stop><stop offset="1" stop-color="#0f1927"></stop></linearGradient></defs><ellipse cx="46.12" cy="52.6" rx="12.89" ry="17.5" style="fill:#185e67;"></ellipse><ellipse cx="79.65" cy="52.6" rx="12.89" ry="17.5" style="fill:#185e67;"></ellipse><path d="M122.38,124.91l-15.49-20.55c10.47-11.09,16.92-26.03,16.92-42.46,0-34.13-27.78-61.9-61.91-61.9S0,27.77,0,61.9s27.77,61.9,61.9,61.9c10.3,0,20.01-2.54,28.56-7.01l15.47,20.52c2.65,3.51,7.69,4.22,11.2,1.57l3.68-2.77c3.51-2.65,4.22-7.69,1.57-11.2ZM15.05,61.9c0-25.84,21.02-46.85,46.85-46.85s46.85,21.02,46.85,46.85-21.02,46.85-46.85,46.85S15.05,87.74,15.05,61.9Z" style="fill:url(#linear-gradient);"></path></svg>