<?xml version="1.0"?><svg id="Layer_1" xmlns="http://www.w3.org/2000/svg" xmlns:xlink="http://www.w3.org/1999/xlink" viewBox="0 0 513.87 141.48"><defs><linearGradient id="New_Gradient_Swatch_1" x1=".5" y1="70.74" x2="124.48" y2="70.74" gradientUnits="userSpaceOnUse"><stop offset="0" stop-color="#237c82"></stop><stop offset="1" stop-color="#0f1927"></stop></linearGradient><linearGradient id="linear-gradient" x1="0" y1="70.74" x2="124.98" y2="70.74" gradientUnits="userSpaceOnUse"><stop offset="0" stop-color="#237c82"></stop><stop offset="1" stop-color="#0f1927"></stop></linearGradient></defs><ellipse cx="46.62" cy="53.1" rx="12.89" ry="17.5" style="fill:#185e67;"></ellipse><ellipse cx="80.15" cy="53.1" rx="12.89" ry="17.5" style="fill:#185e67;"></ellipse><path d="M122.88,125.41l-15.49-20.55c10.47-11.09,16.92-26.03,16.92-42.46C124.3,28.27,96.53.5,62.4.5S.5,28.27.5,62.4s27.77,61.9,61.9,61.9c10.3,0,20.01-2.54,28.56-7.01l15.47,20.52c2.65,3.51,7.69,4.22,11.2,1.57l3.68-2.77c3.51-2.65,4.22-7.69,1.57-11.2ZM15.55,62.4c0-25.84,21.02-46.85,46.85-46.85s46.85,21.02,46.85,46.85-21.02,46.85-46.85,46.85S15.55,88.24,15.55,62.4Z" style="fill:url(#New_Gradient_Swatch_1); stroke:url(#linear-gradient); stroke-miterlimit:10;"></path><path d="M138.16,40.37v-9.15h28v9.15h-28ZM145.7,65.16V28.36c0-2.79.6-5.3,1.81-7.51,1.21-2.21,2.96-3.97,5.24-5.27,2.28-1.3,4.93-1.96,7.96-1.96,2.33,0,4.36.4,6.11,1.19,1.75.79,3.27,1.84,4.57,3.14l-6.77,6.84c-.42-.47-.91-.83-1.47-1.08-.56-.26-1.23-.38-2.03-.38-1.49,0-2.64.42-3.46,1.26-.82.84-1.22,1.98-1.22,3.42v37.15h-10.75Z" style="fill:#101a28;"></path><path d="M186.7,65.93c-3.54,0-6.7-.79-9.5-2.37-2.79-1.58-5-3.72-6.63-6.42-1.63-2.7-2.44-5.73-2.44-9.08s.8-6.28,2.41-8.94,3.81-4.76,6.6-6.32c2.79-1.56,5.98-2.34,9.57-2.34s6.64.77,9.46,2.31c2.82,1.54,5.04,3.64,6.67,6.32,1.63,2.68,2.44,5.67,2.44,8.97s-.82,6.44-2.44,9.11c-1.63,2.68-3.84,4.81-6.63,6.39-2.79,1.58-5.96,2.37-9.5,2.37ZM186.7,56.15c1.49,0,2.82-.33,3.98-.98,1.16-.65,2.06-1.59,2.69-2.83.63-1.23.94-2.64.94-4.22s-.33-2.9-.98-4.09c-.65-1.19-1.55-2.12-2.69-2.79-1.14-.67-2.46-1.01-3.95-1.01s-2.82.34-3.98,1.01c-1.16.68-2.07,1.62-2.72,2.83-.65,1.21-.98,2.56-.98,4.05,0,1.58.32,2.99.98,4.22.65,1.23,1.56,2.18,2.72,2.83,1.16.65,2.49.98,3.98.98Z" style="fill:#101a28;"></path><path d="M225.66,65.93c-3.07,0-5.83-.65-8.28-1.95-2.44-1.3-4.34-3.08-5.69-5.34-1.35-2.26-2.03-4.85-2.03-7.79v-19.62h10.75v19.48c0,1.16.21,2.18.63,3.04.42.86,1.02,1.53,1.81,1.99.79.47,1.72.7,2.79.7,1.58,0,2.83-.51,3.74-1.54.91-1.02,1.36-2.42,1.36-4.19v-19.48h10.76v19.62c0,2.98-.66,5.6-1.99,7.86-1.33,2.26-3.18,4.03-5.55,5.31-2.37,1.28-5.14,1.92-8.31,1.92Z" style="fill:#101a28;"></path><path d="M248.15,65.16V31.22h10.75v33.94h-10.75ZM270.63,65.16v-19.34c0-1.72-.56-3.13-1.68-4.22-1.12-1.09-2.51-1.64-4.19-1.64-1.12,0-2.12.24-3,.73-.88.49-1.58,1.18-2.1,2.06-.51.89-.77,1.91-.77,3.07l-4.12-2.03c0-2.65.59-4.98,1.78-6.98,1.19-2,2.82-3.55,4.89-4.64,2.07-1.09,4.41-1.64,7.02-1.64,2.47,0,4.68.58,6.63,1.75,1.96,1.16,3.49,2.74,4.61,4.71,1.12,1.98,1.68,4.13,1.68,6.46v21.72h-10.75Z" style="fill:#101a28;"></path><path d="M302.62,65.86c-3.26,0-6.13-.77-8.62-2.3-2.49-1.54-4.44-3.63-5.83-6.29-1.4-2.65-2.09-5.68-2.09-9.08s.7-6.42,2.09-9.08c1.4-2.65,3.35-4.75,5.87-6.29,2.51-1.54,5.38-2.3,8.59-2.3,2.28,0,4.38.43,6.29,1.29,1.91.86,3.47,2.07,4.68,3.63,1.21,1.56,1.91,3.36,2.1,5.41v14.32c-.19,2-.89,3.81-2.1,5.41-1.21,1.61-2.77,2.89-4.68,3.84-1.91.95-4,1.43-6.29,1.43ZM304.5,56.15c1.54,0,2.86-.34,3.98-1.01,1.12-.67,1.99-1.62,2.62-2.83.63-1.21.94-2.61.94-4.19s-.31-2.9-.94-4.09c-.63-1.19-1.5-2.12-2.62-2.79-1.12-.67-2.42-1.01-3.91-1.01s-2.79.35-3.91,1.05-2.02,1.64-2.69,2.83c-.68,1.19-1.01,2.55-1.01,4.09s.31,2.91.94,4.12c.63,1.21,1.52,2.15,2.69,2.83,1.16.68,2.47,1.01,3.91,1.01ZM322.17,65.16h-10.55v-9.15l1.61-8.31-1.82-8.17V14.46h10.75v50.7Z" style="fill:#101a28;"></path><path d="M158.06,112.11c-3.68,0-6.94-.76-9.78-2.27-2.84-1.51-5.08-3.62-6.7-6.32-1.63-2.7-2.44-5.77-2.44-9.22s.79-6.37,2.37-9.04c1.58-2.68,3.75-4.78,6.5-6.32,2.75-1.54,5.84-2.31,9.29-2.31s6.38.72,8.94,2.17c2.56,1.44,4.58,3.45,6.08,6.01,1.49,2.56,2.23,5.49,2.23,8.8,0,.65-.04,1.32-.1,1.99-.07.68-.22,1.43-.45,2.27l-29.19.14v-7.4l24.58-.14-4.61,3.14c-.05-1.91-.35-3.5-.91-4.78-.56-1.28-1.38-2.27-2.48-2.97-1.09-.7-2.41-1.05-3.95-1.05-1.68,0-3.13.4-4.36,1.19-1.23.79-2.19,1.89-2.86,3.28-.68,1.4-1.01,3.07-1.01,5.03s.36,3.66,1.08,5.1c.72,1.44,1.75,2.55,3.07,3.32,1.33.77,2.9,1.15,4.71,1.15,1.63,0,3.12-.29,4.47-.87,1.35-.58,2.54-1.45,3.56-2.62l5.94,5.87c-1.68,2-3.7,3.48-6.08,4.44-2.37.95-5,1.43-7.89,1.43Z" style="fill:#101a28;"></path><path d="M189.7,111.34l-14.39-33.94h11.59l9.78,28.21h-5.1l9.85-28.21h11.38l-14.46,33.94h-8.66Z" style="fill:#101a28;"></path><path d="M232.37,112.11c-3.68,0-6.94-.76-9.78-2.27-2.84-1.51-5.08-3.62-6.7-6.32-1.63-2.7-2.44-5.77-2.44-9.22s.79-6.37,2.37-9.04c1.58-2.68,3.75-4.78,6.5-6.32,2.75-1.54,5.84-2.31,9.29-2.31s6.38.72,8.94,2.17c2.56,1.44,4.58,3.45,6.08,6.01,1.49,2.56,2.23,5.49,2.23,8.8,0,.65-.04,1.32-.1,1.99-.07.68-.22,1.43-.45,2.27l-29.19.14v-7.4l24.58-.14-4.61,3.14c-.05-1.91-.35-3.5-.91-4.78-.56-1.28-1.38-2.27-2.48-2.97-1.09-.7-2.41-1.05-3.95-1.05-1.68,0-3.13.4-4.36,1.19-1.23.79-2.19,1.89-2.86,3.28-.68,1.4-1.01,3.07-1.01,5.03s.36,3.66,1.08,5.1c.72,1.44,1.75,2.55,3.07,3.32,1.33.77,2.9,1.15,4.71,1.15,1.63,0,3.12-.29,4.47-.87,1.35-.58,2.54-1.45,3.56-2.62l5.94,5.87c-1.68,2-3.7,3.48-6.08,4.44-2.37.95-5,1.43-7.89,1.43Z" style="fill:#101a28;"></path><path d="M253.88,111.34v-33.94h10.75v33.94h-10.75ZM264.63,92.76l-4.47-3.49c.88-4,2.38-7.1,4.5-9.29,2.12-2.19,5.02-3.28,8.69-3.28,1.63,0,3.06.24,4.3.73,1.23.49,2.32,1.22,3.25,2.2l-6.36,8.1c-.42-.47-.98-.84-1.68-1.12-.7-.28-1.49-.42-2.37-.42-1.82,0-3.25.55-4.3,1.64-1.05,1.09-1.57,2.74-1.57,4.92Z" style="fill:#101a28;"></path><path d="M293.89,111.55l-13.97-34.15h11.59l8.87,27.03h-4.26l9.01-27.03h11.59l-14.53,34.15h-8.31ZM285.16,125.65l10.2-22.07,6.84,7.96-6.01,14.11h-11.03Z" style="fill:#101a28;"></path><path d="M327.06,111.34l-11.73-33.94h10.55l7.33,24.65-3.14.07,7.96-24.72h8.8l8.03,24.72-3.21-.07,7.4-24.65h10.55l-11.8,33.94h-8.8l-7.82-23.46h2.65l-7.96,23.46h-8.8Z" style="fill:#101a28;"></path><path d="M373.57,111.34v-50.7h10.75v50.7h-10.75ZM396.06,111.34v-19.34c0-1.72-.56-3.13-1.68-4.22-1.12-1.09-2.51-1.64-4.19-1.64-1.12,0-2.12.24-3,.73-.88.49-1.58,1.18-2.1,2.06-.51.89-.77,1.91-.77,3.07l-4.12-2.03c0-2.65.57-4.98,1.71-6.98,1.14-2,2.71-3.55,4.71-4.64,2-1.09,4.28-1.64,6.84-1.64s4.98.55,6.98,1.64c2,1.09,3.56,2.61,4.68,4.54,1.12,1.93,1.68,4.18,1.68,6.74v21.72h-10.75Z" style="fill:#101a28;"></path><path d="M430.27,112.11c-3.68,0-6.94-.76-9.78-2.27-2.84-1.51-5.08-3.62-6.7-6.32-1.63-2.7-2.44-5.77-2.44-9.22s.79-6.37,2.37-9.04c1.58-2.68,3.75-4.78,6.5-6.32,2.75-1.54,5.84-2.31,9.29-2.31s6.38.72,8.94,2.17c2.56,1.44,4.58,3.45,6.08,6.01,1.49,2.56,2.23,5.49,2.23,8.8,0,.65-.04,1.32-.1,1.99-.07.68-.22,1.43-.45,2.27l-29.19.14v-7.4l24.58-.14-4.61,3.14c-.05-1.91-.35-3.5-.91-4.78-.56-1.28-1.38-2.27-2.48-2.97-1.09-.7-2.41-1.05-3.95-1.05-1.68,0-3.13.4-4.36,1.19-1.23.79-2.19,1.89-2.86,3.28-.68,1.4-1.01,3.07-1.01,5.03s.36,3.66,1.08,5.1c.72,1.44,1.75,2.55,3.07,3.32,1.33.77,2.9,1.15,4.71,1.15,1.63,0,3.12-.29,4.47-.87,1.35-.58,2.54-1.45,3.56-2.62l5.94,5.87c-1.68,2-3.7,3.48-6.08,4.44-2.37.95-5,1.43-7.89,1.43Z" style="fill:#101a28;"></path><path d="M451.78,111.34v-33.94h10.75v33.94h-10.75ZM462.54,92.76l-4.47-3.49c.88-4,2.38-7.1,4.5-9.29,2.12-2.19,5.02-3.28,8.69-3.28,1.63,0,3.06.24,4.3.73,1.23.49,2.32,1.22,3.25,2.2l-6.36,8.1c-.42-.47-.98-.84-1.68-1.12-.7-.28-1.49-.42-2.37-.42-1.82,0-3.25.55-4.3,1.64-1.05,1.09-1.57,2.74-1.57,4.92Z" style="fill:#101a28;"></path><path d="M497.39,112.11c-3.68,0-6.94-.76-9.78-2.27-2.84-1.51-5.08-3.62-6.7-6.32-1.63-2.7-2.44-5.77-2.44-9.22s.79-6.37,2.37-9.04c1.58-2.68,3.75-4.78,6.5-6.32,2.75-1.54,5.84-2.31,9.29-2.31s6.38.72,8.94,2.17c2.56,1.44,4.58,3.45,6.08,6.01,1.49,2.56,2.23,5.49,2.23,8.8,0,.65-.04,1.32-.1,1.99-.07.68-.22,1.43-.45,2.27l-29.19.14v-7.4l24.58-.14-4.61,3.14c-.05-1.91-.35-3.5-.91-4.78-.56-1.28-1.38-2.27-2.48-2.97-1.09-.7-2.41-1.05-3.95-1.05-1.68,0-3.13.4-4.36,1.19-1.23.79-2.19,1.89-2.86,3.28-.68,1.4-1.01,3.07-1.01,5.03s.36,3.66,1.08,5.1c.72,1.44,1.75,2.55,3.07,3.32,1.33.77,2.9,1.15,4.71,1.15,1.63,0,3.12-.29,4.47-.87,1.35-.58,2.54-1.45,3.56-2.62l5.94,5.87c-1.68,2-3.7,3.48-6.08,4.44-2.37.95-5,1.43-7.89,1.43Z" style="fill:#101a28;"></path></svg>