<?xml version="1.0"?><svg id="Layer_1" xmlns="http://www.w3.org/2000/svg" viewBox="0 0 107.3 35.2"><path d="M26.4,12.4h-12.5v3.7h8.9c-.4,5.2-4.8,7.4-8.9,7.4-5.4,0-9.8-4.3-9.8-9.7v-.2c0-5.6,4.4-10,9.8-10s6.7,2.7,6.7,2.7l2.6-2.7S19.8,0,13.8,0,0,6.5,0,13.6s5.6,13.7,14,13.7,12.7-5,12.7-12.4-.2-2.5-.2-2.5h-.1Z" style="fill:#fff;"></path><path id="A" d="M36.6,9.7c-5.1,0-8.8,4-8.8,8.7s3.6,8.8,8.9,8.8,8.7-3.7,8.7-8.7-4.6-8.8-8.8-8.8h0ZM36.7,13.2c2.5,0,4.9,2,4.9,5.3s-2.4,5.3-4.9,5.3-5-2.2-5-5.3,2.2-5.3,5-5.3h0Z" style="fill:#fff;"></path><path id="A1" d="M55.8,9.7c-5.1,0-8.8,4-8.8,8.7s3.6,8.8,8.9,8.8,8.7-3.7,8.7-8.7-4.6-8.8-8.8-8.8h0ZM55.9,13.2c2.5,0,4.9,2,4.9,5.3s-2.4,5.3-4.9,5.3-5-2.2-5-5.3,2.2-5.3,5-5.3h0Z" style="fill:#fff;"></path><path d="M74.6,9.7c-4.7,0-8.4,4.1-8.4,8.8s4.3,8.8,8.3,8.8,3.8-1,4.8-2.1v1.7c0,3-1.8,4.8-4.6,4.8s-4-2-4.5-3.1l-3.4,1.4c1.2,2.5,3.6,5.2,7.9,5.2s8.3-3,8.3-9.1v-15.8h-3.7v1.5c-1.1-1.2-2.7-2-4.7-2h0v-.1ZM75,13.2c2.3,0,4.7,2,4.7,5.3s-2.4,5.3-4.7,5.3-4.9-2-4.9-5.3,2.4-5.4,4.9-5.4h0v.1Z" style="fill:#fff;"></path><path d="M99.4,9.7c-4.4,0-8.2,3.5-8.2,8.8s4.2,8.8,8.6,8.8,6-2,7.3-3.8l-3-2c-.8,1.2-2.1,2.4-4.3,2.4s-3.6-1.3-4.3-2.7l11.8-4.9-.6-1.4c-1.1-2.8-3.8-5.1-7.3-5.1h0v-.1ZM99.6,13.1c1.6,0,2.8.9,3.2,1.9l-7.9,3.3c-.3-2.5,2.1-5.2,4.6-5.2h.1Z" style="fill:#fff;"></path><path d="M85.6,26.8h3.9V.9h-3.9v25.9Z" style="fill:#fff;"></path></svg>