<?xml version="1.0"?>
<svg id="Layer_1" xmlns="http://www.w3.org/2000/svg" version="1.1" viewBox="0 0 88 33">
  
  <defs>
    
  </defs>
  <path class="st0" d="M76.4,24.7V8.4h2.6v10.8l5.4-6.3h3.1l-4.9,5.4,4.9,6.4h-3.1l-4-5.5h-1.5s0,5.5,0,5.5h-2.6Z"></path>
  <path class="st0" d="M68.6,25c-3.8,0-5.9-2.7-5.9-6.2s2.1-6.2,5.9-6.2,5.9,2.7,5.9,6.2-2.1,6.2-5.9,6.2ZM65.4,18.8c0,2.7,1.5,4,3.2,4s3.2-1.3,3.2-4-1.4-4.1-3.2-4.1-3.2,1.4-3.2,4.1Z"></path>
  <path class="st0" d="M55.6,24.7v-9.9l2.2-1.9h4.6v2.2h-4.2v9.6h-2.6Z"></path>
  <path class="st0" d="M45.7,25c-4.9,0-7.8-3.6-7.8-8.4s3-8.6,7.9-8.6,6.6,2,7.3,5.6h-2.9c-.4-2.1-2.2-3.2-4.4-3.2-3.5,0-5.1,3.1-5.1,6.2s1.5,6.2,5.1,6.2,4.9-2.4,5-4.5h-5.1v-2.4h7.7v1.2c0,4.6-1.9,7.9-7.7,7.9Z"></path>
  <path id="mark" class="st0" d="M13.2,21l11.1-8.2c.5-.4,1.3-.2,1.6.4,1.4,3.3.8,7.2-2,10-2.7,2.7-6.5,3.3-9.9,2l-3.8,1.7c5.4,3.7,12,2.8,16.1-1.3,3.3-3.3,4.3-7.7,3.3-11.7h0c-1.4-5.9.3-8.2,3.8-13,0-.1.2-.2.2-.3l-4.6,4.6h0s-15.9,16-15.9,16"></path>
  <path id="mark1" data-name="mark" class="st0" d="M11,23c-3.9-3.7-3.2-9.4,0-12.8,2.4-2.4,6.5-3.4,10-2l3.8-1.7c-.7-.5-1.5-1-2.5-1.4-4.5-1.9-9.9-.9-13.5,2.7-3.5,3.5-4.6,8.9-2.7,13.6,1.4,3.5-.9,5.9-3.3,8.4-.8.9-1.7,1.7-2.3,2.7l10.6-9.5"></path>
</svg>