<?xml version="1.0"?>
<svg id="Layer_1" xmlns="http://www.w3.org/2000/svg" xmlns:xlink="http://www.w3.org/1999/xlink" version="1.1" viewBox="0 0 513.9 141.5">
  
  <defs>
    
    <linearGradient id="linear-gradient" x1=".5" y1="73.3" x2="124.5" y2="73.3" gradientTransform="translate(0 144) scale(1 -1)" gradientUnits="userSpaceOnUse">
      <stop offset="0" stop-color="#237c82"></stop>
      <stop offset="1" stop-color="#0f1927"></stop>
    </linearGradient>
  </defs>
  <ellipse class="st1" cx="46.6" cy="53.1" rx="12.9" ry="17.5"></ellipse>
  <ellipse class="st1" cx="80.2" cy="53.1" rx="12.9" ry="17.5"></ellipse>
  <path class="st0" d="M122.9,125.4l-15.5-20.6c10.5-11.1,16.9-26,16.9-42.5,0-34.1-27.8-61.9-61.9-61.9S.5,28.3.5,62.4s27.8,61.9,61.9,61.9,20-2.5,28.6-7l15.5,20.5c2.7,3.5,7.7,4.2,11.2,1.6l3.7-2.8c3.5-2.6,4.2-7.7,1.6-11.2ZM15.6,62.4c0-25.8,21-46.8,46.8-46.8s46.9,21,46.9,46.8-21,46.8-46.8,46.8S15.6,88.2,15.6,62.4Z"></path>
  <path class="st2" d="M138.2,40.4v-9.1h28v9.1h-28ZM145.7,65.2V28.4c0-2.8.6-5.3,1.8-7.5,1.2-2.2,3-4,5.2-5.3,2.3-1.3,4.9-2,8-2s4.4.4,6.1,1.2,3.3,1.8,4.6,3.1l-6.8,6.8c-.4-.5-.9-.8-1.5-1.1-.6-.3-1.2-.4-2-.4-1.5,0-2.6.4-3.5,1.3s-1.2,2-1.2,3.4v37.2h-10.8,0Z"></path>
  <path class="st2" d="M186.7,65.9c-3.5,0-6.7-.8-9.5-2.4-2.8-1.6-5-3.7-6.6-6.4s-2.4-5.7-2.4-9.1.8-6.3,2.4-8.9,3.8-4.8,6.6-6.3c2.8-1.6,6-2.3,9.6-2.3s6.6.8,9.5,2.3,5,3.6,6.7,6.3,2.4,5.7,2.4,9-.8,6.4-2.4,9.1c-1.6,2.7-3.8,4.8-6.6,6.4-2.8,1.6-6,2.4-9.5,2.4h0ZM186.7,56.2c1.5,0,2.8-.3,4-1,1.2-.7,2.1-1.6,2.7-2.8.6-1.2.9-2.6.9-4.2s-.3-2.9-1-4.1-1.6-2.1-2.7-2.8c-1.1-.7-2.5-1-3.9-1s-2.8.3-4,1c-1.2.7-2.1,1.6-2.7,2.8s-1,2.6-1,4,.3,3,1,4.2c.6,1.2,1.6,2.2,2.7,2.8,1.2.7,2.5,1,4,1h0Z"></path>
  <path class="st2" d="M225.7,65.9c-3.1,0-5.8-.7-8.3-2-2.4-1.3-4.3-3.1-5.7-5.3-1.4-2.3-2-4.8-2-7.8v-19.6h10.8v19.5c0,1.2.2,2.2.6,3s1,1.5,1.8,2c.8.5,1.7.7,2.8.7,1.6,0,2.8-.5,3.7-1.5.9-1,1.4-2.4,1.4-4.2v-19.5h10.8v19.6c0,3-.7,5.6-2,7.9-1.3,2.3-3.2,4-5.6,5.3-2.4,1.3-5.1,1.9-8.3,1.9h0Z"></path>
  <path class="st2" d="M248.1,65.2V31.2h10.8v33.9s-10.8,0-10.8,0ZM270.6,65.2v-19.3c0-1.7-.6-3.1-1.7-4.2s-2.5-1.6-4.2-1.6-2.1.2-3,.7c-.9.5-1.6,1.2-2.1,2.1-.5.9-.8,1.9-.8,3.1l-4.1-2c0-2.7.6-5,1.8-7s2.8-3.5,4.9-4.6,4.4-1.6,7-1.6,4.7.6,6.6,1.8c2,1.2,3.5,2.7,4.6,4.7,1.1,2,1.7,4.1,1.7,6.5v21.7h-10.8Z"></path>
  <path class="st2" d="M302.6,65.9c-3.3,0-6.1-.8-8.6-2.3-2.5-1.5-4.4-3.6-5.8-6.3-1.4-2.7-2.1-5.7-2.1-9.1s.7-6.4,2.1-9.1c1.4-2.7,3.4-4.8,5.9-6.3,2.5-1.5,5.4-2.3,8.6-2.3s4.4.4,6.3,1.3,3.5,2.1,4.7,3.6,1.9,3.4,2.1,5.4v14.3c-.2,2-.9,3.8-2.1,5.4-1.2,1.6-2.8,2.9-4.7,3.8s-4,1.4-6.3,1.4h0ZM304.5,56.2c1.5,0,2.9-.3,4-1,1.1-.7,2-1.6,2.6-2.8s.9-2.6.9-4.2-.3-2.9-.9-4.1-1.5-2.1-2.6-2.8c-1.1-.7-2.4-1-3.9-1s-2.8.3-3.9,1-2,1.6-2.7,2.8c-.7,1.2-1,2.5-1,4.1s.3,2.9.9,4.1,1.5,2.2,2.7,2.8c1.2.7,2.5,1,3.9,1h0ZM322.2,65.2h-10.5v-9.2l1.6-8.3-1.8-8.2V14.5h10.8v50.7h0Z"></path>
  <path class="st2" d="M158.1,112.1c-3.7,0-6.9-.8-9.8-2.3-2.8-1.5-5.1-3.6-6.7-6.3-1.6-2.7-2.4-5.8-2.4-9.2s.8-6.4,2.4-9c1.6-2.7,3.8-4.8,6.5-6.3s5.8-2.3,9.3-2.3,6.4.7,8.9,2.2c2.6,1.4,4.6,3.4,6.1,6,1.5,2.6,2.2,5.5,2.2,8.8s0,1.3-.1,2c0,.7-.2,1.4-.4,2.3h-29.2c0,.1,0-7.3,0-7.3h24.6c0-.1-4.6,3-4.6,3,0-1.9-.4-3.5-.9-4.8s-1.4-2.3-2.5-3c-1.1-.7-2.4-1.1-3.9-1.1s-3.1.4-4.4,1.2-2.2,1.9-2.9,3.3c-.7,1.4-1,3.1-1,5s.4,3.7,1.1,5.1c.7,1.4,1.8,2.6,3.1,3.3,1.3.8,2.9,1.2,4.7,1.2s3.1-.3,4.5-.9,2.5-1.4,3.6-2.6l5.9,5.9c-1.7,2-3.7,3.5-6.1,4.4-2.4.9-5,1.4-7.9,1.4h0Z"></path>
  <path class="st2" d="M189.7,111.3l-14.4-33.9h11.6l9.8,28.2h-5.1l9.9-28.2h11.4l-14.5,33.9h-8.7,0Z"></path>
  <path class="st2" d="M232.4,112.1c-3.7,0-6.9-.8-9.8-2.3-2.8-1.5-5.1-3.6-6.7-6.3-1.6-2.7-2.4-5.8-2.4-9.2s.8-6.4,2.4-9c1.6-2.7,3.8-4.8,6.5-6.3s5.8-2.3,9.3-2.3,6.4.7,8.9,2.2c2.6,1.4,4.6,3.4,6.1,6,1.5,2.6,2.2,5.5,2.2,8.8s0,1.3-.1,2c0,.7-.2,1.4-.4,2.3h-29.2c0,.1,0-7.3,0-7.3h24.6c0-.1-4.6,3-4.6,3,0-1.9-.4-3.5-.9-4.8s-1.4-2.3-2.5-3c-1.1-.7-2.4-1.1-3.9-1.1s-3.1.4-4.4,1.2-2.2,1.9-2.9,3.3c-.7,1.4-1,3.1-1,5s.4,3.7,1.1,5.1c.7,1.4,1.8,2.6,3.1,3.3,1.3.8,2.9,1.2,4.7,1.2s3.1-.3,4.5-.9,2.5-1.4,3.6-2.6l5.9,5.9c-1.7,2-3.7,3.5-6.1,4.4-2.4.9-5,1.4-7.9,1.4h0Z"></path>
  <path class="st2" d="M253.9,111.3v-33.9h10.8v33.9h-10.8ZM264.6,92.8l-4.5-3.5c.9-4,2.4-7.1,4.5-9.3s5-3.3,8.7-3.3,3.1.2,4.3.7c1.2.5,2.3,1.2,3.2,2.2l-6.4,8.1c-.4-.5-1-.8-1.7-1.1-.7-.3-1.5-.4-2.4-.4-1.8,0-3.2.6-4.3,1.6s-1.6,2.7-1.6,4.9h0Z"></path>
  <path class="st2" d="M293.9,111.6l-14-34.2h11.6l8.9,27h-4.3l9-27h11.6l-14.5,34.2h-8.3,0ZM285.2,125.7l10.2-22.1,6.8,8-6,14.1h-11Z"></path>
  <path class="st2" d="M327.1,111.3l-11.7-33.9h10.5l7.3,24.7h-3.1c0,0,8-24.7,8-24.7h8.8l8,24.7h-3.2c0,0,7.4-24.7,7.4-24.7h10.5l-11.8,33.9h-8.8l-7.8-23.5h2.6l-8,23.5h-8.8Z"></path>
  <path class="st2" d="M373.6,111.3v-50.7h10.8v50.7h-10.8ZM396.1,111.3v-19.3c0-1.7-.6-3.1-1.7-4.2-1.1-1.1-2.5-1.6-4.2-1.6s-2.1.2-3,.7c-.9.5-1.6,1.2-2.1,2.1-.5.9-.8,1.9-.8,3.1l-4.1-2c0-2.7.6-5,1.7-7,1.1-2,2.7-3.6,4.7-4.6s4.3-1.6,6.8-1.6,5,.6,7,1.6,3.6,2.6,4.7,4.5,1.7,4.2,1.7,6.7v21.7h-10.8,0Z"></path>
  <path class="st2" d="M430.3,112.1c-3.7,0-6.9-.8-9.8-2.3-2.8-1.5-5.1-3.6-6.7-6.3-1.6-2.7-2.4-5.8-2.4-9.2s.8-6.4,2.4-9c1.6-2.7,3.8-4.8,6.5-6.3s5.8-2.3,9.3-2.3,6.4.7,8.9,2.2c2.6,1.4,4.6,3.4,6.1,6,1.5,2.6,2.2,5.5,2.2,8.8s0,1.3-.1,2c0,.7-.2,1.4-.5,2.3h-29.2c0,.1,0-7.3,0-7.3h24.6c0-.1-4.6,3-4.6,3,0-1.9-.4-3.5-.9-4.8s-1.4-2.3-2.5-3c-1.1-.7-2.4-1.1-4-1.1s-3.1.4-4.4,1.2c-1.2.8-2.2,1.9-2.9,3.3-.7,1.4-1,3.1-1,5s.4,3.7,1.1,5.1c.7,1.4,1.8,2.6,3.1,3.3,1.3.8,2.9,1.2,4.7,1.2s3.1-.3,4.5-.9,2.5-1.4,3.6-2.6l5.9,5.9c-1.7,2-3.7,3.5-6.1,4.4-2.4.9-5,1.4-7.9,1.4h0Z"></path>
  <path class="st2" d="M451.8,111.3v-33.9h10.8v33.9h-10.8ZM462.5,92.8l-4.5-3.5c.9-4,2.4-7.1,4.5-9.3s5-3.3,8.7-3.3,3.1.2,4.3.7c1.2.5,2.3,1.2,3.2,2.2l-6.4,8.1c-.4-.5-1-.8-1.7-1.1-.7-.3-1.5-.4-2.4-.4-1.8,0-3.2.6-4.3,1.6s-1.6,2.7-1.6,4.9h0Z"></path>
  <path class="st2" d="M497.4,112.1c-3.7,0-6.9-.8-9.8-2.3-2.8-1.5-5.1-3.6-6.7-6.3-1.6-2.7-2.4-5.8-2.4-9.2s.8-6.4,2.4-9c1.6-2.7,3.8-4.8,6.5-6.3s5.8-2.3,9.3-2.3,6.4.7,8.9,2.2c2.6,1.4,4.6,3.4,6.1,6,1.5,2.6,2.2,5.5,2.2,8.8s0,1.3,0,2c0,.7-.2,1.4-.5,2.3h-29.2c0,.1,0-7.3,0-7.3h24.6c0-.1-4.6,3-4.6,3,0-1.9-.4-3.5-.9-4.8s-1.4-2.3-2.5-3c-1.1-.7-2.4-1.1-4-1.1s-3.1.4-4.4,1.2c-1.2.8-2.2,1.9-2.9,3.3-.7,1.4-1,3.1-1,5s.4,3.7,1.1,5.1c.7,1.4,1.8,2.6,3.1,3.3,1.3.8,2.9,1.2,4.7,1.2s3.1-.3,4.5-.9,2.5-1.4,3.6-2.6l5.9,5.9c-1.7,2-3.7,3.5-6.1,4.4-2.4.9-5,1.4-7.9,1.4h0Z"></path>
</svg>